<svg width="844" height="374" viewBox="0 0 844 374" fill="none" xmlns="http://www.w3.org/2000/svg">
<path d="M379.799 22.6275C379.799 31.8606 368.414 49.6114 345.644 75.8801C323.005 102.149 300.951 123.151 279.482 138.886C263.218 174.518 246.433 200.526 229.128 216.912C211.823 233.297 188.468 245.261 159.063 252.804C210.848 266.588 241.814 274.586 251.963 276.797C262.242 279.137 272.066 280.308 281.434 280.308C294.965 280.308 307.196 275.431 318.125 265.678C319.296 265.028 320.012 264.703 320.272 264.703C320.923 264.963 321.313 265.288 321.443 265.678C321.443 267.759 317.995 271.205 311.099 276.016C298.348 284.729 279.807 289.086 255.476 289.086C237.651 289.086 220.476 287.395 203.952 284.014C187.427 280.633 162.25 273.546 128.421 262.752C106.692 267.043 84.313 269.189 61.2831 269.189C20.4277 269.189 0 262.947 0 250.463C0 238.759 15.6135 232.907 46.8406 232.907C71.0415 232.907 107.148 239.149 155.159 251.633C169.472 246.042 182.158 237.784 193.217 226.86C204.407 215.807 218.459 197.535 235.374 172.047C196.6 205.858 160.364 222.764 126.665 222.764C103.765 222.764 85.484 216.002 71.8222 202.477C58.2905 188.953 51.5246 170.682 51.5246 147.664C51.5246 112.422 68.179 79.0012 101.488 47.4007C134.927 15.8002 170.252 0 207.465 0C224.64 0 238.301 4.42146 248.45 13.2644C258.729 22.1073 263.868 34.0713 263.868 49.1563C263.868 75.8151 251.378 103.384 226.396 131.864C201.414 160.343 177.279 174.583 153.988 174.583C144.1 174.583 135.708 171.462 128.812 165.22C122.046 158.978 118.663 151.305 118.663 142.202C118.663 135.18 120.81 129.133 125.103 124.061C129.527 118.859 134.732 116.259 140.717 116.259C148.784 116.259 152.817 120.225 152.817 128.157C152.817 132.449 151.256 136.285 148.133 139.666C145.011 142.917 141.498 144.543 137.594 144.543C131.219 144.543 128.161 141.617 128.421 135.765C128.551 131.994 128.096 130.108 127.055 130.108C124.193 130.108 122.761 134.139 122.761 142.202C122.761 150.395 125.819 157.222 131.934 162.684C138.18 168.146 145.921 170.877 155.159 170.877C176.628 170.877 199.463 156.897 223.664 128.938C247.995 100.848 260.16 74.3846 260.16 49.5464C260.16 36.152 255.541 25.1633 246.303 16.5805C237.195 7.86761 225.485 3.51116 211.173 3.51116C176.693 3.51116 143.644 20.7419 112.027 55.2033C80.5397 89.6647 64.7961 125.557 64.7961 162.879C64.7961 180.435 70.391 194.219 81.5806 204.233C92.9004 214.246 108.384 219.253 128.031 219.253C144.946 219.253 161.73 215.091 178.384 206.769C195.169 198.446 215.792 183.946 240.253 163.269C260.681 129.068 275.514 105.335 284.752 92.0705C293.599 79.3263 304.203 66.452 316.564 53.4477C340.635 28.2193 359.046 15.6052 371.797 15.6052C377.132 15.6052 379.799 17.9459 379.799 22.6275ZM376.481 22.6275C376.481 19.7665 374.92 18.3361 371.797 18.3361C362.169 18.3361 348.962 28.1543 332.178 47.7908C317.215 65.3466 300.56 93.7611 282.214 133.034C304.464 114.958 325.737 94.0862 346.035 70.4183C366.332 46.6204 376.481 30.6902 376.481 22.6275ZM121.981 260.801C76.3111 246.367 45.2792 239.149 28.885 239.149C11.8403 239.149 3.31787 242.92 3.31787 250.463C3.31787 260.606 23.2902 265.678 63.2348 265.678C84.8335 265.678 104.415 264.052 121.981 260.801Z" fill="#1E1E1E"/>
<path d="M411.611 74.7098C411.611 83.5527 406.797 93.1108 397.169 103.384C393.526 107.286 388.712 111.187 382.726 115.088C376.741 118.989 372.513 120.94 370.04 120.94C369.26 120.94 368.869 120.55 368.869 119.77C368.869 119.119 369.39 118.599 370.431 118.209C384.613 112.877 391.704 107.025 391.704 100.653C391.704 99.8731 391.054 99.483 389.753 99.483C383.767 99.483 380.775 96.687 380.775 91.0952C380.775 86.0235 383.442 80.6267 388.777 74.9048C394.111 69.1829 399.056 66.322 403.609 66.322C408.944 66.322 411.611 69.1179 411.611 74.7098Z" fill="#1E1E1E"/>
<path d="M454.353 132.254C454.353 137.456 446.221 147.794 429.957 163.269C429.177 167.3 428.786 170.812 428.786 173.803C428.786 181.345 432.234 193.309 439.13 209.694C442.643 217.887 444.4 224.779 444.4 230.371C444.4 242.075 438.675 252.219 427.225 260.801C415.905 269.384 402.438 273.676 386.825 273.676C377.977 273.676 370.886 271.205 365.552 266.263C360.347 261.192 357.745 254.429 357.745 245.977C357.745 236.223 361.193 226.73 368.089 217.497C375.115 208.264 382.336 203.647 389.753 203.647C391.054 203.647 392.225 203.908 393.266 204.428L408.879 185.311C413.563 179.72 419.809 171.982 427.615 162.099C429.827 152.996 433.21 145.193 437.764 138.691C442.318 132.189 446.807 128.938 451.231 128.938C453.313 128.938 454.353 130.043 454.353 132.254ZM427.225 209.304C427.225 205.403 427.095 201.567 426.835 197.796C426.574 193.894 426.444 188.367 426.444 181.215C426.444 175.363 426.704 170.486 427.225 166.585C419.939 175.818 409.4 188.823 395.608 205.598C398.08 207.679 399.316 210.215 399.316 213.206C399.316 220.878 393.005 226.08 380.384 228.811C375.31 229.981 370.886 232.777 367.113 237.199C363.47 241.49 361.648 246.042 361.648 250.853C361.648 256.055 363.535 260.411 367.308 263.922C371.081 267.434 375.765 269.189 381.36 269.189C392.29 269.189 402.634 262.882 412.392 250.268C422.281 237.524 427.225 223.869 427.225 209.304Z" fill="#1E1E1E"/>
<path d="M530.469 127.377C530.469 131.929 528.518 136.22 524.614 140.251C520.841 144.153 516.677 146.103 512.123 146.103C506.268 146.103 503.341 143.177 503.341 137.326C503.341 133.034 505.358 128.938 509.391 125.036C513.425 121.005 517.653 118.989 522.077 118.989C527.672 118.989 530.469 121.785 530.469 127.377ZM533.202 208.134C533.072 208.524 532.421 209.564 531.25 211.255L522.858 222.764C498.397 256.705 479.725 273.676 466.844 273.676C460.729 273.676 455.59 271.53 451.426 267.239C447.392 262.817 445.376 257.355 445.376 250.853C445.376 243.311 449.865 231.867 458.842 216.522L489.289 164.83C493.322 165.74 496.51 166.195 498.852 166.195C502.365 166.195 507.309 165.74 513.685 164.83L469.381 237.589C463.006 248.122 459.818 256.25 459.818 261.972C459.818 267.824 462.876 270.75 468.991 270.75C480.571 270.75 500.934 250.138 530.079 208.914C530.73 207.614 531.38 206.964 532.031 206.964C532.811 206.964 533.202 207.354 533.202 208.134Z" fill="#1E1E1E"/>
<path d="M631.957 208.134C631.957 208.524 630.786 210.215 628.444 213.206L620.052 223.739C593.119 257.03 570.024 273.676 550.767 273.676C541.659 273.676 533.982 270.425 527.737 263.922C521.622 257.29 518.564 249.033 518.564 239.149C518.564 215.741 534.893 195.13 567.551 177.314C584.726 167.951 598.713 163.269 609.513 163.269C614.197 163.269 618.165 164.7 621.418 167.561C624.801 170.291 626.492 173.673 626.492 177.704C626.492 187.067 620.377 195.065 608.147 201.697C595.916 208.199 575.488 214.311 546.864 220.033C538.016 233.427 533.592 244.611 533.592 253.584C533.592 264.768 539.642 270.36 551.743 270.36C572.301 270.36 597.477 250.268 627.273 210.085C628.835 208.004 630.136 206.964 631.177 206.964C631.697 207.094 631.957 207.484 631.957 208.134ZM615.563 172.047C615.563 167.886 613.286 165.805 608.732 165.805C601.836 165.805 592.728 170.617 581.408 180.24C570.219 189.733 559.224 202.087 548.425 217.302C567.161 212.49 583.035 205.728 596.046 197.015C609.057 188.172 615.563 179.85 615.563 172.047ZM625.907 144.543C625.777 145.063 625.387 145.323 624.736 145.323C621.483 145.323 617.189 140.512 611.855 130.888C606.65 121.265 602.682 111.057 599.95 100.263L616.734 88.5593C614.522 94.9314 613.416 101.239 613.416 107.481C613.416 121.005 617.059 132.579 624.346 142.202C625.256 143.112 625.777 143.893 625.907 144.543Z" fill="#1E1E1E"/>
<path d="M743.204 208.134C743.204 209.174 739.3 213.921 731.493 222.374C721.605 233.297 712.302 238.759 703.584 238.759C693.696 238.759 688.751 233.037 688.751 221.593C688.751 217.952 689.532 213.336 691.093 207.744C682.896 214.896 676.196 221.984 670.991 229.006C665.917 236.028 657.069 250.333 644.448 271.92C637.552 271.4 633.519 271.14 632.348 271.14C631.827 271.14 627.859 271.4 620.442 271.92L652.45 220.033C668.454 194.024 676.456 177.899 676.456 171.657C676.456 168.016 674.959 166.195 671.967 166.195C664.681 166.195 651.474 180.175 632.348 208.134C631.177 209.955 630.136 210.865 629.225 210.865C628.704 210.735 628.444 210.345 628.444 209.694C628.574 209.044 628.835 208.524 629.225 208.134L632.738 203.257C652.775 176.599 666.372 163.269 673.528 163.269C683.937 163.269 689.142 169.966 689.142 183.361C689.142 193.374 683.807 206.638 673.138 223.154C679.904 215.351 686.344 208.979 692.46 204.038C697.404 192.464 703.519 182.776 710.805 174.973C718.222 167.17 724.858 163.269 730.713 163.269C734.746 163.269 736.763 165.025 736.763 168.536C736.763 174.778 727.72 183.686 709.634 195.26C706.772 197.08 702.478 199.746 696.753 203.257L694.411 205.208C692.59 211.19 691.679 216.132 691.679 220.033C691.679 230.957 695.777 236.418 703.975 236.418C714.123 236.418 725.183 228.031 737.153 211.255C739.756 208.394 741.382 206.964 742.033 206.964C742.813 206.964 743.204 207.354 743.204 208.134Z" fill="#1E1E1E"/>
<path d="M841.569 208.134C841.569 208.524 840.398 210.215 838.056 213.206L829.663 223.739C802.73 257.03 779.635 273.676 760.378 273.676C751.271 273.676 743.594 270.425 737.349 263.922C731.233 257.29 728.176 249.033 728.176 239.149C728.176 215.741 744.505 195.13 777.163 177.314C794.338 167.951 808.325 163.269 819.124 163.269C823.808 163.269 827.777 164.7 831.03 167.561C834.413 170.291 836.104 173.673 836.104 177.704C836.104 187.067 829.989 195.065 817.758 201.697C805.528 208.199 785.1 214.311 756.475 220.033C747.627 233.427 743.204 244.611 743.204 253.584C743.204 264.768 749.254 270.36 761.354 270.36C781.912 270.36 807.089 250.268 836.885 210.085C838.446 208.004 839.747 206.964 840.788 206.964C841.309 207.094 841.569 207.484 841.569 208.134ZM825.175 172.047C825.175 167.886 822.898 165.805 818.344 165.805C811.448 165.805 802.34 170.617 791.02 180.24C779.83 189.733 768.836 202.087 758.036 217.302C776.773 212.49 792.646 205.728 805.658 197.015C818.669 188.172 825.175 179.85 825.175 172.047Z" fill="#1E1E1E"/>
<path d="M43.5942 342.107C43.5942 345.401 42.4666 348.241 40.2113 350.625C37.8476 353.117 34.3563 354.363 29.7372 354.363C27.5904 354.363 25.0857 353.984 22.2232 353.226C22.0498 353.182 21.963 353.247 21.963 353.421V363.987C21.963 368.928 22.4076 371.399 23.2967 371.399H29.1517C29.412 371.399 29.5421 371.529 29.5421 371.789V372.667C29.5421 372.927 29.477 373.057 29.3469 373.057H11.8142C11.6407 373.057 11.554 372.971 11.554 372.797V371.789C11.554 371.529 11.6624 371.399 11.8793 371.399H16.3682C16.7151 371.399 16.8886 371.128 16.8886 370.586V337.1C16.8886 333.069 16.6176 331.053 16.0754 331.053H11.6191C11.3155 331.053 11.1637 330.967 11.1637 330.793V329.655C11.1637 329.417 11.2938 329.298 11.554 329.298H19.686C20.0547 329.298 21.4859 329.265 23.9798 329.2C26.4953 329.135 27.8181 329.103 27.9482 329.103C30.3336 329.103 32.2853 329.265 33.8033 329.59C36.2971 330.089 38.4765 331.303 40.3414 333.232C42.51 335.486 43.5942 338.444 43.5942 342.107ZM38.4873 342.562C38.4873 339.679 37.4139 337.176 35.267 335.052C32.7515 332.516 29.2276 331.248 24.6954 331.248C23.4376 331.248 22.722 331.27 22.5485 331.313C22.375 331.357 22.2666 331.573 22.2232 331.964C22.0931 333.112 22.0281 336.45 22.0281 341.977C22.0281 342.172 22.0172 343.711 21.9955 346.593C21.9739 349.454 21.963 350.95 21.963 351.08C21.963 351.362 22.1148 351.568 22.4184 351.698C23.8063 352.218 25.8881 352.478 28.6638 352.478C31.9166 352.478 34.3237 351.698 35.8851 350.137C37.6199 348.425 38.4873 345.9 38.4873 342.562Z" fill="#1E1E1E"/>
<path d="M135.246 372.732C135.246 372.949 135.181 373.057 135.05 373.057H120.055C119.838 373.057 119.73 372.927 119.73 372.667V371.789C119.73 371.486 119.838 371.334 120.055 371.334H124.511C124.858 371.334 124.999 371.139 124.934 370.749C124.739 370.055 123.991 367.801 122.69 363.987C121.389 360.15 120.673 358.091 120.543 357.81C120.369 357.376 120.142 357.159 119.86 357.159H104.149C103.954 357.203 103.791 357.333 103.661 357.55C103.357 358.135 102.837 359.511 102.099 361.678C101.362 363.824 100.907 365.287 100.733 366.067C100.386 367.801 100.213 368.842 100.213 369.188C100.213 370.619 100.386 371.334 100.733 371.334H105.678C105.938 371.334 106.068 371.486 106.068 371.789V372.732C106.068 372.949 105.959 373.057 105.743 373.057H92.6012C92.3843 373.057 92.2759 372.949 92.2759 372.732V371.659C92.2759 371.443 92.3626 371.334 92.5361 371.334H95.3335C95.8106 371.334 96.4503 370.315 97.2527 368.278C98.0768 366.241 100.506 360.356 104.539 350.625C107.12 344.491 110.253 337.057 113.94 328.322C114.178 327.65 114.417 327.271 114.655 327.185C115.262 327.011 116.043 326.74 116.997 326.372C117.149 326.307 117.323 326.426 117.518 326.729C117.713 327.011 117.626 327.336 117.258 327.705C116.607 328.377 116.282 329.027 116.282 329.655C116.26 330.306 116.412 331.118 116.737 332.094C117.908 335.345 120.022 341.435 123.08 350.365C126.138 359.273 128.263 365.038 129.456 367.66C130.605 370.11 131.429 371.334 131.928 371.334H134.985C135.159 371.334 135.246 371.486 135.246 371.789V372.732ZM119.144 354.201C118.255 351.622 117.301 348.793 116.282 345.716C115.262 342.638 114.211 339.43 113.126 336.092C113.061 335.811 112.975 335.637 112.866 335.572C112.779 335.659 112.671 335.832 112.541 336.092C109.83 342.725 107.879 347.428 106.686 350.202C105.515 352.976 104.929 354.407 104.929 354.494C104.929 354.624 105.027 354.689 105.222 354.689H118.982C119.198 354.689 119.253 354.526 119.144 354.201Z" fill="#1E1E1E"/>
<path d="M227.255 372.667C227.255 372.927 227.168 373.057 226.995 373.057H216.423C216.184 373.057 215.913 372.927 215.61 372.667C214.786 371.952 213.268 370.131 211.056 367.205C209.885 365.623 208.714 364.041 207.543 362.459C206.242 360.508 204.442 357.474 202.143 353.356C201.991 352.987 201.818 352.803 201.623 352.803C200.603 352.803 198.803 352.673 196.223 352.413C195.876 352.305 195.702 352.413 195.702 352.738C195.702 353.15 195.713 354.526 195.735 356.867C195.757 359.186 195.768 361.635 195.768 364.214C195.768 368.961 196.255 371.334 197.231 371.334H203.021C203.238 371.334 203.347 371.443 203.347 371.659V372.732C203.347 372.949 203.26 373.057 203.086 373.057H185.846C185.651 373.057 185.532 373.025 185.489 372.96C185.445 372.895 185.424 372.819 185.424 372.732V371.724C185.424 371.529 185.456 371.421 185.521 371.399C185.586 371.356 185.673 371.334 185.781 371.334H190.043C190.39 371.334 190.563 370.998 190.563 370.326V352.966C190.563 343.993 190.563 339.506 190.563 339.506C190.52 333.546 190.14 330.566 189.425 330.566H185.293C185.077 330.566 184.968 330.479 184.968 330.306V329.103C184.968 328.929 185.055 328.843 185.228 328.843H194.954C195.258 328.843 196.494 328.799 198.663 328.712C200.853 328.626 202.078 328.582 202.338 328.582C203.748 328.582 205.125 328.691 206.469 328.908C209.462 329.384 211.869 330.501 213.691 332.256C215.816 334.272 216.878 336.819 216.878 339.896C216.878 343.407 215.837 346.29 213.756 348.544C212.476 349.931 210.384 351.112 207.478 352.088C207.304 352.174 207.239 352.305 207.282 352.478C208.237 354.97 210.438 358.167 213.886 362.069C215.686 364.106 216.998 365.569 217.822 366.458C219.275 367.975 220.511 369.113 221.53 369.871C222.918 370.89 224.653 371.399 226.734 371.399C227.081 371.399 227.255 371.486 227.255 371.659V372.667ZM211.479 341.619C211.479 338.737 210.524 336.385 208.616 334.564C205.949 332.05 202.089 330.793 197.036 330.793C196.299 330.793 195.898 330.945 195.833 331.248C195.833 337.469 195.789 341.348 195.702 342.887C195.702 342.887 195.702 345.358 195.702 350.3C195.702 350.538 195.854 350.69 196.158 350.755C196.657 350.841 198.034 350.885 200.289 350.885C201.221 350.885 202.262 350.798 203.412 350.625C204.583 350.451 205.114 350.365 205.006 350.365C209.321 349.238 211.479 346.323 211.479 341.619Z" fill="#1E1E1E"/>
<path d="M310.319 329.298C310.319 329.168 310.145 329.818 309.798 331.248C309.581 332.05 309.332 333.069 309.05 334.304C309.007 334.608 308.877 334.76 308.66 334.76C308.508 334.76 308.378 334.651 308.269 334.434C308.009 334.001 307.673 333.578 307.261 333.166C306.502 332.451 305.277 332.007 303.585 331.834C303.217 331.812 300.625 331.682 295.811 331.443C290.997 331.183 288.46 331.053 288.2 331.053C287.939 331.053 287.809 331.162 287.809 331.378C287.549 332.57 287.419 337.826 287.419 347.146C287.419 347.731 287.636 348.024 288.069 348.024H304.268C304.637 348.024 304.832 347.916 304.854 347.699C304.962 346.463 305.093 345.087 305.244 343.57C305.288 343.288 305.45 343.147 305.732 343.147H306.318C306.535 343.147 306.643 343.31 306.643 343.635C306.643 343.7 306.6 344.654 306.513 346.496C306.426 348.338 306.383 349.4 306.383 349.682C306.383 349.985 306.394 351.145 306.415 353.161C306.437 355.155 306.448 356.217 306.448 356.347C306.448 356.932 306.318 357.224 306.058 357.224H305.374C305.223 357.224 305.114 357.084 305.049 356.802C305.049 356.693 305.006 355.772 304.919 354.038C304.832 352.283 304.789 351.362 304.789 351.275C304.789 351.058 304.637 350.928 304.334 350.885C302.989 350.668 297.546 350.56 288.004 350.56C287.701 350.56 287.527 350.711 287.484 351.015C287.484 351.015 287.484 354.927 287.484 362.751C287.484 368.473 288.059 371.334 289.208 371.334H295.648C295.844 371.334 295.941 371.421 295.941 371.594V372.667C295.941 372.927 295.822 373.057 295.583 373.057H277.953C277.715 373.057 277.595 372.949 277.595 372.732V371.789C277.595 371.486 277.715 371.334 277.953 371.334H281.954C282.301 371.334 282.496 371.139 282.54 370.749C282.583 370.337 282.605 363.185 282.605 349.292V337.978C282.605 333.08 282.225 330.631 281.466 330.631H277.335C277.075 330.631 276.945 330.544 276.945 330.371V329.233C276.945 329.016 277.053 328.908 277.27 328.908H287.874C288.2 328.908 291.322 328.929 297.242 328.973C303.184 329.016 306.318 329.038 306.643 329.038C307.077 329.038 307.716 329.016 308.562 328.973C309.408 328.929 309.842 328.908 309.863 328.908C310.167 328.908 310.319 329.038 310.319 329.298Z" fill="#1E1E1E"/>
<path d="M405.678 330.176C405.678 330.436 405.613 330.566 405.483 330.566H403.629C401.959 330.566 401.027 330.587 400.832 330.631C400.723 331.042 400.669 331.519 400.669 332.061C400.582 333.448 400.517 335.616 400.474 338.563C400.452 342.746 400.506 348.316 400.636 355.274C400.853 367.758 395.714 374 385.218 374C380.686 374 377.01 373.512 374.191 372.537C371.372 371.562 369.344 369.849 368.108 367.4C367.089 365.363 366.514 362.296 366.384 358.2C366.298 355.534 366.254 348.858 366.254 338.173C366.254 333.101 365.831 330.566 364.986 330.566H360.594C360.356 330.566 360.236 330.457 360.236 330.241V329.233C360.236 328.973 360.356 328.843 360.594 328.843H376.566C376.826 328.843 376.956 328.929 376.956 329.103V330.11C376.956 330.414 376.869 330.566 376.696 330.566H372.174C371.914 330.566 371.762 330.75 371.719 331.118C371.589 332.007 371.524 339.148 371.524 352.543C371.524 357.203 371.654 360.356 371.914 362.004C372.413 365.103 373.855 367.454 376.24 369.058C378.626 370.662 381.868 371.464 385.966 371.464C390.043 371.464 393.307 370.24 395.757 367.79C397.622 365.927 398.555 362.242 398.555 356.737C398.555 349.454 398.49 344.068 398.359 340.579C398.099 333.903 397.405 330.566 396.278 330.566H392.082C391.908 330.566 391.8 330.533 391.756 330.468C391.713 330.403 391.691 330.327 391.691 330.241V329.168C391.691 328.951 391.821 328.843 392.082 328.843H405.353C405.57 328.843 405.678 328.951 405.678 329.168V330.176Z" fill="#1E1E1E"/>
<path d="M513.203 372.732C513.203 372.949 513.095 373.057 512.878 373.057H498.013C497.709 373.057 497.557 372.949 497.557 372.732V371.659C497.557 371.443 497.666 371.334 497.883 371.334H501.396C501.938 371.334 502.209 371.063 502.209 370.521V353.876C502.209 345.315 502.122 339.593 501.949 336.71C501.905 336.082 501.797 335.767 501.623 335.767C501.493 335.767 501.331 335.973 501.135 336.385C500.68 337.317 496.289 347.276 487.962 366.262C486.704 369.08 485.706 371.475 484.969 373.447C484.752 373.816 484.568 374 484.416 374C484.112 374 483.917 373.837 483.83 373.512C480.838 367.4 477.748 361.061 474.56 354.494C472.782 350.636 470.32 345.531 467.176 339.181C466.981 338.813 466.807 338.628 466.656 338.628C466.482 338.628 466.385 338.856 466.363 339.311C465.777 347.959 465.485 354.277 465.485 358.265V365.612C465.485 369.427 466.005 371.334 467.046 371.334H470.884C471.123 371.334 471.242 371.421 471.242 371.594V372.732C471.242 372.949 471.166 373.057 471.014 373.057H459.239C458.979 373.057 458.849 372.971 458.849 372.797V371.789C458.849 371.486 458.957 371.334 459.174 371.334H462.557C463.143 371.334 463.435 370.846 463.435 369.871C463.435 366.49 463.587 360.291 463.891 351.275C463.999 349.584 464.097 347.883 464.183 346.171C464.357 342.811 464.444 339.918 464.444 337.49C464.444 334.326 463.349 332.202 461.158 331.118C460.681 330.88 459.705 330.696 458.231 330.566C458.057 330.566 457.971 330.479 457.971 330.306V329.103C457.971 328.929 458.057 328.843 458.231 328.843H466.818C467.209 328.843 467.48 328.994 467.631 329.298C469.648 333.286 471.828 337.62 474.17 342.302C477.596 349.671 481.304 357.441 485.294 365.612C485.663 366.154 485.945 366.241 486.14 365.872C488.569 360.345 491.171 354.483 493.947 348.284C496.636 342.085 499.39 335.811 502.209 329.46C502.426 329.048 502.762 328.843 503.217 328.843H511.544C511.761 328.843 511.87 328.929 511.87 329.103V330.241C511.87 330.457 511.805 330.566 511.675 330.566H508.454C507.804 330.566 507.413 331.303 507.283 332.776C507.131 334.163 507.056 339.604 507.056 349.097C507.056 356.076 507.131 361.072 507.283 364.084C507.5 368.918 508.14 371.334 509.202 371.334H512.943C513.117 371.334 513.203 371.443 513.203 371.659V372.732Z" fill="#1E1E1E"/>
<path d="M598.739 368.408C598.132 369.644 597.406 371.063 596.56 372.667C596.387 372.927 596.159 373.057 595.877 373.057H565.105C564.888 373.057 564.78 372.927 564.78 372.667V371.659C564.78 371.443 564.867 371.334 565.04 371.334H569.854C570.288 371.334 570.505 371.107 570.505 370.651C570.505 370.456 570.483 367.129 570.44 360.671C570.397 354.19 570.375 350.852 570.375 350.657C570.375 350.441 570.364 348.208 570.342 343.96C570.321 339.69 570.31 337.425 570.31 337.165C570.31 332.766 569.887 330.566 569.041 330.566H565.105C564.888 330.566 564.78 330.457 564.78 330.241V329.168C564.78 328.951 564.91 328.843 565.17 328.843H594.283C594.673 328.843 595.194 328.821 595.844 328.778C596.517 328.734 596.842 328.712 596.82 328.712C597.102 328.712 597.211 328.821 597.146 329.038C596.842 330.23 596.462 331.606 596.007 333.166C595.834 333.665 595.66 333.914 595.487 333.914C595.487 333.914 595.335 333.752 595.031 333.427C594.229 332.646 592.96 332.094 591.225 331.769C588.797 331.335 583.646 331.075 575.775 330.988C575.514 330.988 575.33 331.118 575.222 331.378C575.135 331.638 575.091 337.014 575.091 347.504C575.091 347.937 575.276 348.154 575.644 348.154H591.551C591.854 348.154 592.028 347.991 592.071 347.666C592.136 347.341 592.223 346.648 592.331 345.586C592.462 344.524 592.537 343.938 592.559 343.83C592.559 343.418 592.689 343.212 592.949 343.212H593.437C593.698 343.212 593.828 343.397 593.828 343.765C593.828 343.852 593.784 344.762 593.698 346.496C593.611 348.208 593.568 349.227 593.568 349.552C593.568 349.877 593.589 351.015 593.633 352.966C593.676 354.916 593.698 355.957 593.698 356.087C593.698 356.563 593.578 356.802 593.34 356.802H592.819C592.602 356.802 592.472 356.65 592.429 356.347C592.342 354.96 592.234 353.312 592.104 351.405C592.039 350.972 591.833 350.755 591.486 350.755C591.291 350.755 588.612 350.711 583.451 350.625C578.312 350.538 575.688 350.495 575.579 350.495C575.297 350.495 575.157 350.69 575.157 351.08V363.336C575.157 368.538 575.72 371.139 576.848 371.139C586.997 371.139 593.741 370.359 597.081 368.798C597.883 368.343 598.371 368.072 598.544 367.986C598.761 367.986 598.826 368.126 598.739 368.408Z" fill="#1E1E1E"/>
<path d="M692.017 372.667C692.017 372.927 691.93 373.057 691.757 373.057H681.185C680.947 373.057 680.676 372.927 680.372 372.667C679.548 371.952 678.03 370.131 675.818 367.205C674.647 365.623 673.476 364.041 672.305 362.459C671.004 360.508 669.204 357.474 666.905 353.356C666.754 352.987 666.58 352.803 666.385 352.803C665.366 352.803 663.566 352.673 660.985 352.413C660.638 352.305 660.465 352.413 660.465 352.738C660.465 353.15 660.476 354.526 660.497 356.867C660.519 359.186 660.53 361.635 660.53 364.214C660.53 368.961 661.018 371.334 661.994 371.334H667.784C668.001 371.334 668.109 371.443 668.109 371.659V372.732C668.109 372.949 668.022 373.057 667.849 373.057H650.609C650.414 373.057 650.294 373.025 650.251 372.96C650.208 372.895 650.186 372.819 650.186 372.732V371.724C650.186 371.529 650.219 371.421 650.284 371.399C650.349 371.356 650.435 371.334 650.544 371.334H654.805C655.152 371.334 655.325 370.998 655.325 370.326V352.966C655.325 343.993 655.325 339.506 655.325 339.506C655.282 333.546 654.903 330.566 654.187 330.566H650.056C649.839 330.566 649.731 330.479 649.731 330.306V329.103C649.731 328.929 649.817 328.843 649.991 328.843H659.717C660.02 328.843 661.256 328.799 663.425 328.712C665.615 328.626 666.84 328.582 667.101 328.582C668.51 328.582 669.887 328.691 671.232 328.908C674.224 329.384 676.631 330.501 678.453 332.256C680.578 334.272 681.641 336.819 681.641 339.896C681.641 343.407 680.6 346.29 678.518 348.544C677.239 349.931 675.146 351.112 672.24 352.088C672.067 352.174 672.002 352.305 672.045 352.478C672.999 354.97 675.2 358.167 678.648 362.069C680.448 364.106 681.76 365.569 682.584 366.458C684.037 367.975 685.273 369.113 686.292 369.871C687.68 370.89 689.415 371.399 691.497 371.399C691.844 371.399 692.017 371.486 692.017 371.659V372.667ZM676.241 341.619C676.241 338.737 675.287 336.385 673.379 334.564C670.711 332.05 666.851 330.793 661.799 330.793C661.061 330.793 660.66 330.945 660.595 331.248C660.595 337.469 660.552 341.348 660.465 342.887C660.465 342.887 660.465 345.358 660.465 350.3C660.465 350.538 660.617 350.69 660.92 350.755C661.419 350.841 662.796 350.885 665.051 350.885C665.984 350.885 667.025 350.798 668.174 350.625C669.345 350.451 669.876 350.365 669.768 350.365C674.083 349.238 676.241 346.323 676.241 341.619Z" fill="#1E1E1E"/>
<path d="M758.492 372.797C758.492 372.971 758.427 373.057 758.297 373.057H742.52C742.325 373.057 742.206 373.025 742.163 372.96C742.119 372.895 742.098 372.819 742.098 372.732V371.724C742.098 371.529 742.13 371.421 742.195 371.399C742.26 371.356 742.336 371.334 742.423 371.334H746.847C747.15 371.334 747.302 371.02 747.302 370.391L747.237 336.775C747.237 332.679 746.858 330.631 746.099 330.631H741.967C741.664 330.631 741.512 330.522 741.512 330.306V329.168C741.512 328.994 741.621 328.908 741.837 328.908H757.614C757.809 328.908 757.906 328.994 757.906 329.168V330.371C757.906 330.544 757.787 330.631 757.548 330.631H752.962C752.572 330.631 752.377 330.858 752.377 331.313C752.333 350.993 752.311 361.158 752.311 361.808C752.311 365.016 752.322 366.848 752.344 367.303C752.496 369.99 752.93 371.334 753.645 371.334H758.232C758.405 371.334 758.492 371.421 758.492 371.594V372.797Z" fill="#1E1E1E"/>
<path d="M843.963 368.408C843.356 369.644 842.629 371.063 841.783 372.667C841.61 372.927 841.382 373.057 841.1 373.057H810.329C810.112 373.057 810.003 372.927 810.003 372.667V371.659C810.003 371.443 810.09 371.334 810.264 371.334H815.078C815.511 371.334 815.728 371.107 815.728 370.651C815.728 370.456 815.707 367.129 815.663 360.671C815.62 354.19 815.598 350.852 815.598 350.657C815.598 350.441 815.587 348.208 815.566 343.96C815.544 339.69 815.533 337.425 815.533 337.165C815.533 332.766 815.11 330.566 814.265 330.566H810.329C810.112 330.566 810.003 330.457 810.003 330.241V329.168C810.003 328.951 810.133 328.843 810.394 328.843H839.506C839.897 328.843 840.417 328.821 841.068 328.778C841.74 328.734 842.065 328.712 842.044 328.712C842.326 328.712 842.434 328.821 842.369 329.038C842.065 330.23 841.686 331.606 841.23 333.166C841.057 333.665 840.883 333.914 840.71 333.914C840.71 333.914 840.558 333.752 840.255 333.427C839.452 332.646 838.184 332.094 836.449 331.769C834.02 331.335 828.87 331.075 820.998 330.988C820.738 330.988 820.553 331.118 820.445 331.378C820.358 331.638 820.315 337.014 820.315 347.504C820.315 347.937 820.499 348.154 820.868 348.154H836.774C837.078 348.154 837.251 347.991 837.295 347.666C837.36 347.341 837.446 346.648 837.555 345.586C837.685 344.524 837.761 343.938 837.782 343.83C837.782 343.418 837.913 343.212 838.173 343.212H838.661C838.921 343.212 839.051 343.397 839.051 343.765C839.051 343.852 839.008 344.762 838.921 346.496C838.834 348.208 838.791 349.227 838.791 349.552C838.791 349.877 838.812 351.015 838.856 352.966C838.899 354.916 838.921 355.957 838.921 356.087C838.921 356.563 838.802 356.802 838.563 356.802H838.043C837.826 356.802 837.696 356.65 837.652 356.347C837.566 354.96 837.457 353.312 837.327 351.405C837.262 350.972 837.056 350.755 836.709 350.755C836.514 350.755 833.836 350.711 828.675 350.625C823.535 350.538 820.911 350.495 820.803 350.495C820.521 350.495 820.38 350.69 820.38 351.08V363.336C820.38 368.538 820.944 371.139 822.071 371.139C832.22 371.139 838.964 370.359 842.304 368.798C843.106 368.343 843.594 368.072 843.768 367.986C843.984 367.986 844.05 368.126 843.963 368.408Z" fill="#1E1E1E"/>
</svg>
